<svg width="24" height="100" viewBox="0 0 24 100" fill="none" xmlns="http://www.w3.org/2000/svg">
<path d="M23.9999 0L24 100L5.51 90.7085C2.13204 89.011 0.000100208 85.5537 9.63478e-05 81.7732L7.82965e-06 16.7041C2.05929e-06 12.6735 2.41968 9.03698 6.13739 7.48015L23.9999 0Z" fill="#D62A40"/>
<path d="M11.5489 42.927C11.8483 42.0057 13.1517 42.0057 13.4511 42.9271L14.4084 45.8734C14.5422 46.2854 14.9262 46.5643 15.3594 46.5643H18.4574C19.4261 46.5643 19.8289 47.804 19.0451 48.3734L16.5389 50.1943C16.1884 50.4489 16.0417 50.9003 16.1756 51.3123L17.1329 54.2586C17.4323 55.1799 16.3778 55.946 15.5941 55.3766L13.0878 53.5557C12.7373 53.3011 12.2627 53.3011 11.9122 53.5557L9.40594 55.3766C8.62222 55.946 7.56774 55.1799 7.8671 54.2586L8.82441 51.3123C8.95828 50.9003 8.81162 50.4489 8.46114 50.1943L5.95486 48.3734C5.17115 47.804 5.57392 46.5643 6.54265 46.5643H9.64057C10.0738 46.5643 10.4578 46.2854 10.5916 45.8734L11.5489 42.927Z" fill="#FFF500"/>
</svg>
