<svg width="53" height="34" viewBox="0 0 53 34" fill="none" xmlns="http://www.w3.org/2000/svg">
<path d="M30.0214 1.36714C30.4474 1.52557 30.8681 1.69702 31.282 1.88301C31.6966 2.0667 32.1022 2.27259 32.5032 2.48001L32.581 2.49532L32.5916 2.49838L32.5153 2.48308L33.0266 2.76627L33.0387 2.77163L33.0447 2.77546C33.2743 2.91399 33.51 3.03875 33.7305 3.19412L34.4004 3.64111L35.0681 4.08887C35.2818 4.2473 35.4933 4.40956 35.7032 4.57489L35.7184 4.5856C36.1103 4.90247 36.5378 5.26604 36.9177 5.62271C37.3157 5.99163 37.6881 6.36667 38.0506 6.76161C38.7734 7.54766 39.4342 8.39648 40.0173 9.27591L40.0369 9.3027L40.1087 9.40603L40.089 9.38001L40.3443 9.78566L40.3828 9.83771C40.3874 9.85991 40.4651 9.98007 40.5135 10.0635L40.6759 10.3352C40.7861 10.522 40.8805 10.7018 40.9833 10.8848C41.1849 11.2529 41.3631 11.6356 41.5384 12.0183C41.9107 12.7737 42.2045 13.5636 42.4643 14.3604C42.9635 15.9624 43.2989 17.6156 43.3986 19.2803C43.4575 20.1115 43.4582 20.9458 43.4061 21.7747C43.3631 22.6037 43.2543 23.428 43.1025 24.2401C42.8185 25.7747 42.3435 27.2664 41.7128 28.6793C41.6751 28.7635 41.5716 28.987 41.5331 29.0712L43.4507 29.7555C44.1213 28.0716 44.5911 26.3097 44.823 24.5202C44.94 23.6262 45.0088 22.7261 45.0073 21.8268C45.0148 20.9282 44.965 20.0296 44.854 19.141C44.6493 17.36 44.1969 15.6218 43.5768 13.9593C43.2566 13.1304 42.9009 12.3168 42.4688 11.5461C42.2642 11.1549 42.0557 10.7669 41.8223 10.3903C41.7038 10.2043 41.5859 10.0084 41.4674 9.83006L41.2831 9.55681C41.2151 9.45884 41.1796 9.39608 41.0633 9.23994L41.1018 9.29199L40.8065 8.87485L40.796 8.86031L40.7869 8.84883L40.7099 8.75009L40.7295 8.77688C40.0596 7.87755 39.333 7.0448 38.5415 6.27329C38.148 5.8883 37.7334 5.51555 37.3157 5.16883C36.8852 4.80833 36.4698 4.49069 36.0008 4.15469C35.7795 3.99931 35.556 3.84624 35.3294 3.69775L34.6255 3.27985L33.9216 2.86424C33.6912 2.71958 33.442 2.60477 33.2011 2.47695L33.2336 2.49915C33.2147 2.48461 33.1928 2.4716 33.1701 2.46165L33.1837 2.46777L32.6497 2.20983L32.6407 2.2083C32.22 2.01925 31.8001 1.83479 31.3711 1.67253C30.9429 1.50797 30.5101 1.35872 30.0728 1.22324C29.6355 1.08854 29.1944 0.968369 28.7503 0.865041C28.3055 0.76401 27.8561 0.683644 27.4105 0.591797C27.8516 0.708136 28.2942 0.812995 28.7315 0.937753C29.168 1.06557 29.6 1.2087 30.026 1.36714H30.0214ZM32.6331 2.20677L32.5697 2.19452L32.5591 2.19223L32.6324 2.20677H32.6331Z" fill="white"/>
<path d="M35.9924 4.15039C35.9924 4.15039 35.9963 4.15275 35.9979 4.15432C36.001 4.15668 36.0048 4.15904 36.0079 4.1614L35.9924 4.15039Z" fill="white"/>
<path d="M23.6454 18.3708C23.6454 18.3708 23.6379 18.3677 23.6341 18.3662C23.255 18.2223 22.7203 17.9215 22.4468 17.4049C21.9567 16.1075 21.4779 14.8224 21.0761 13.4922C21.138 14.8454 21.2845 16.2086 21.4378 17.5556C21.3834 17.9039 21.2264 18.1978 20.7898 18.5246C19.7929 19.1408 18.9047 19.9092 18.2053 20.5973C18.2318 20.6088 18.2627 20.6226 18.2884 20.631C18.3194 20.6448 18.3466 20.6601 18.376 20.667C19.4092 21.1093 20.453 21.5395 21.5035 21.9536C23.8554 22.8835 26.2398 23.7737 28.646 24.6386C28.6762 24.6493 28.7057 24.66 28.7366 24.6738C28.7661 24.6814 28.7955 24.6921 28.8258 24.7029C28.6452 23.3925 28.3817 21.9857 28.1098 20.9027C28.0154 20.5185 27.7601 20.1909 27.4149 20.0026C26.2972 19.3933 24.8455 18.7895 23.6454 18.3708Z" fill="white"/>
<path d="M14.5257 12.0874C15.1676 11.8326 15.7666 11.9267 16.3874 12.0714C16.3874 12.0714 16.3912 12.066 16.3934 12.0637C16.648 12.1219 16.91 12.1854 17.1751 12.2443C17.7854 12.3836 18.4077 12.5268 18.9779 12.6401C19.5481 12.7533 20.0708 12.8383 20.4832 12.8613C20.7868 12.8766 21.2694 12.7472 21.5541 12.5008C22.2187 11.9244 23.4574 10.7388 24.4135 9.79586C24.4399 9.77596 24.4656 9.74917 24.4905 9.72239H24.4936C24.5819 9.63513 24.6635 9.55017 24.7436 9.4767C24.7504 9.46598 24.7587 9.45986 24.7692 9.4522C25.3311 8.96771 25.8183 8.93557 26.43 9.02205V9.01899C26.9534 9.17054 27.4753 9.33127 27.9919 9.50502C28.4798 9.67034 28.9639 9.84638 29.4398 10.0423C29.9156 10.2406 30.3861 10.4541 30.8256 10.7327C30.445 10.3737 30.0137 10.0676 29.5765 9.77749C29.1376 9.48818 28.6868 9.21799 28.2298 8.95776C27.5735 8.58655 26.9043 8.24059 26.2269 7.90612C25.8138 7.65813 25.384 7.36422 25.0358 6.58352C25.0298 6.56974 25.0245 6.55826 25.0185 6.54449C24.6121 5.6352 24.1174 4.68612 23.7285 3.98349C23.7247 3.97584 23.7202 3.96818 23.7157 3.96129C23.6001 3.70259 23.5291 3.42858 23.6152 3.16452C23.6764 3.03823 23.7376 2.91194 23.8063 2.78719C23.9906 2.45883 24.19 2.13431 24.4377 1.83887C24.0872 1.9996 23.7549 2.21314 23.4324 2.44199C23.2716 2.55757 23.1137 2.6785 22.9581 2.80938C22.832 2.91883 22.7119 3.01986 22.5843 3.16682C22.4604 3.15304 22.3343 3.15687 22.2097 3.18519C22.0639 3.21427 21.9053 3.24642 21.7376 3.28469C20.2271 3.62452 17.9334 4.26362 16.6774 4.74276C16.614 4.76725 16.5543 4.7948 16.4992 4.82848C16.4977 4.82925 16.4961 4.83078 16.4954 4.83154C16.3413 4.75347 16.1865 4.68535 16.0369 4.6379C15.8285 4.57054 15.6246 4.52233 15.4222 4.47946C15.0181 4.39527 14.6193 4.3348 14.219 4.27817C14.5604 4.49554 14.9003 4.71597 15.2198 4.94941C15.3217 5.02366 15.4191 5.10096 15.5136 5.17826C15.8255 5.52422 15.79 5.82885 15.7167 6.14495C15.7129 6.15949 15.7092 6.1748 15.7054 6.18934C15.3315 7.52265 15.117 8.76412 14.9977 9.63819C14.9962 9.64585 14.9947 9.65656 14.9932 9.66345C14.9932 9.66728 14.9924 9.66957 14.9917 9.6734C14.8595 10.5444 14.5317 10.9026 14.207 11.2524C13.8973 11.5103 13.596 11.7775 13.3074 12.0568C12.7312 12.6133 12.2093 13.2118 11.7305 13.8348C12.3483 13.3526 12.9917 12.9141 13.6586 12.5367C13.9419 12.376 14.2304 12.2283 14.5219 12.0874H14.5257Z" fill="white"/>
<path d="M31.0657 17.6734C30.3369 18.285 29.6202 18.9088 28.9518 19.5808C29.741 19.0657 30.5635 18.611 31.3905 18.1725C31.8044 17.9543 32.222 17.7454 32.6405 17.5494C32.7553 17.4959 32.8716 17.4461 32.9871 17.3948C33.6842 17.156 33.9584 17.3948 34.5339 17.6727C35.3798 18.1924 36.5353 18.8804 37.6078 19.3772C38.1002 19.606 38.6719 19.3963 38.9053 18.9026C39.3917 17.8763 40.076 16.2421 40.5359 15.0183C40.5435 15.006 40.548 14.9946 40.5541 14.9754C40.5556 14.9693 40.5571 14.9647 40.5593 14.9601C40.6832 14.5889 40.9188 14.6272 41.2187 14.6463C41.4785 14.6846 41.7391 14.7336 41.9951 14.8239L41.9966 14.8223C41.7995 14.5774 41.5593 14.3608 41.3101 14.1565C41.1847 14.0547 41.0548 13.9567 40.9181 13.8625C40.7912 13.7776 40.6696 13.6957 40.5027 13.6192C40.5027 13.6192 40.5027 13.6184 40.5027 13.6176C39.8532 12.4489 38.5798 10.4811 36.7543 9.05896C36.7528 9.05819 36.7521 9.05666 36.7506 9.0559C36.7483 9.05437 36.7468 9.05284 36.7445 9.0513C36.7158 9.02528 36.6849 9.00232 36.6531 8.9763C36.6403 8.96635 36.6267 8.95793 36.6131 8.94874C36.4349 8.80332 36.3035 8.65101 36.2174 8.51783C36.1282 8.3127 36.0361 8.12901 35.9409 7.93077C35.7982 7.64222 35.6487 7.35903 35.4923 7.0789C35.336 6.79953 35.1744 6.52322 34.9976 6.2561C34.8194 5.99204 34.6336 5.72415 34.3979 5.51367L34.3957 5.5152C34.5656 5.78079 34.6691 6.07547 34.7688 6.37014C34.8662 6.66558 34.947 6.96791 35.0218 7.27024C35.0966 7.57334 35.1638 7.8772 35.2234 8.18259C35.2552 8.35021 35.2884 8.52854 35.3156 8.69769C35.2748 8.89823 35.1494 8.99007 35.0354 9.05743C34.9402 9.11024 34.8398 9.16764 34.7378 9.22199C34.0596 9.59167 33.2922 10.0134 32.5272 10.6678C32.2538 10.9005 32.1314 11.2717 32.2047 11.636L32.3112 12.1687C32.4698 12.9693 32.6775 14.011 32.8784 14.9456V14.9494C32.8784 14.9494 32.8799 14.9548 32.8806 14.9586C33.0883 15.9054 32.787 16.3371 32.3633 16.6447H32.364C32.3044 16.6891 32.244 16.7335 32.1843 16.7787C31.8014 17.0695 31.429 17.368 31.0635 17.6727L31.0657 17.6734Z" fill="white"/>
<path d="M34.8165 26.8136C35.3029 26.9843 35.7893 27.1542 36.2787 27.3241L39.6433 28.4944L39.7219 28.5219L39.8004 28.5495C40.0051 27.9854 40.1917 27.4359 40.3684 26.8718V26.8687C40.4726 26.7669 40.5995 26.6575 40.7211 26.5457C40.8502 26.4286 40.9771 26.3077 41.0995 26.1837C41.3449 25.9357 41.57 25.6739 41.7724 25.4022V25.4007C41.4635 25.5385 41.1523 25.6525 40.8389 25.7436C40.78 25.7612 40.7196 25.7742 40.6607 25.7903C40.3004 25.8722 40.0761 25.8224 39.8926 25.7482C39.8593 25.7344 39.8269 25.7214 39.7959 25.7061C39.5648 25.5974 39.3004 25.4925 39.0384 25.3869C39.0384 25.3869 39.0384 25.3869 39.0369 25.3869C39.0331 25.3854 39.0293 25.3838 39.0255 25.3815C39.0006 25.3724 38.9772 25.3624 38.9538 25.3502C38.9508 25.3494 38.9485 25.3479 38.9455 25.3471C38.697 25.2323 38.4938 25.0624 38.521 24.5978C38.521 24.5863 38.521 24.5794 38.521 24.5702C38.5807 24.0651 38.6169 23.5592 38.6252 23.0548C38.6388 22.108 38.5626 21.1604 38.3398 20.2588C38.3677 21.1864 38.2438 22.0988 38.0399 22.982C37.9017 23.5752 37.722 24.1554 37.512 24.7187C37.401 24.9407 37.2658 25.1435 36.9614 25.3211C36.2636 25.7061 35.3943 26.2395 34.608 26.7409C34.642 26.7539 34.676 26.7677 34.7123 26.7769C34.7462 26.7899 34.7802 26.8036 34.8165 26.8128V26.8136Z" fill="white"/>
<path d="M8.381 13.9291C8.381 13.9291 8.37949 13.9252 8.37873 13.9229C8.35834 13.8617 8.33795 13.8005 8.31831 13.7408C8.22768 13.4515 8.14989 13.1537 8.08343 12.8522C7.9505 12.2483 7.86742 11.6291 7.85458 10.9961C7.70051 11.6084 7.61215 12.2475 7.57967 12.8927C7.56305 13.2157 7.55852 13.5403 7.57061 13.8686C7.57967 14.0332 7.58571 14.1916 7.60157 14.3562C7.5842 14.5743 7.54946 14.6929 7.42711 14.8001C7.38708 14.823 7.35083 14.8498 7.31986 14.8736C7.31382 14.8782 7.30778 14.8835 7.30249 14.8881C7.32666 14.9034 7.35158 14.9225 7.37877 14.9371C7.40369 14.9562 7.42786 14.9715 7.45279 14.9907C7.59326 15.0817 7.73148 15.1767 7.87271 15.267C8.992 16.0086 10.1649 16.6967 11.3703 17.345C11.4058 17.3649 11.4375 17.3825 11.4715 17.3955C11.504 17.4162 11.535 17.4338 11.5659 17.4476C11.3831 16.5368 11.1845 15.6788 11.0184 15.0932C10.9126 14.7212 10.6007 14.4633 10.2178 14.4335V14.4304C9.87263 14.4028 9.4444 14.3875 9.04789 14.3891C8.75485 14.3707 8.50788 14.3072 8.38175 13.9283L8.381 13.9291Z" fill="white"/>
<path d="M1.9514 15.2257C2.19762 15.5303 2.45214 15.8234 2.71421 16.1074C12.1217 25.2423 27.637 29.5346 36.0943 31.2874C36.0943 31.2874 36.0943 31.2874 36.0943 31.2866C36.799 31.429 37.5059 31.5668 38.2143 31.6946C38.2166 31.6984 38.2196 31.7015 38.2219 31.7053C38.6766 31.7895 39.0965 31.8645 39.4794 31.9296C39.4839 31.928 39.4892 31.9257 39.4937 31.9242L39.5005 31.9227C39.5141 31.9227 39.5255 31.9273 39.5398 31.928C39.5428 31.9326 39.5443 31.9372 39.5466 31.941C39.6924 31.9655 39.8321 31.9893 39.9665 32.0114C39.9688 32.0084 39.9711 32.0046 39.9733 32.0015C40.0345 32.0122 40.0957 32.0229 40.1569 32.0336C40.1553 32.0367 40.1538 32.039 40.1516 32.0421C40.2241 32.0535 40.2943 32.065 40.363 32.0765C40.3646 32.0734 40.3661 32.0704 40.3676 32.0673C40.4575 32.0819 40.5428 32.0941 40.6319 32.1094C40.6304 32.1125 40.6289 32.1155 40.6266 32.1194C40.7467 32.1385 40.8585 32.1553 40.9642 32.1714C40.965 32.1676 40.9665 32.1645 40.9673 32.1599C41.0284 32.1707 41.0896 32.1814 41.15 32.189C41.1478 32.1921 41.1455 32.1951 41.1425 32.1982C41.2316 32.2112 41.3147 32.2235 41.391 32.2349C41.391 32.2319 41.3925 32.2288 41.3925 32.2258C41.5428 32.251 41.6961 32.2724 41.8464 32.2954C41.8456 32.2962 41.8441 32.2977 41.8433 32.2985C41.974 32.3161 42.0427 32.3245 42.0427 32.3245C42.7768 32.4286 43.5094 32.5258 44.2443 32.6161C45.7684 32.7944 47.2933 32.9475 48.8219 33.0516C50.0704 33.1381 51.3181 33.1924 52.5695 33.1978C52.0703 33.0792 51.5703 32.9575 51.0741 32.835C46.2314 31.6617 41.4468 30.4087 36.7076 29.0157C36.6562 29.0027 36.6011 28.9874 36.549 28.9706C36.4131 28.9315 36.2726 28.8894 36.1351 28.8466C35.9433 28.7915 35.7552 28.7363 35.5626 28.6782C34.9199 28.4868 34.2772 28.2955 33.6352 28.0942C33.6027 28.0873 33.5695 28.0773 33.5363 28.0674C33.503 28.0574 33.4736 28.0498 33.4441 28.0391C31.9593 27.5829 30.4782 27.1114 29.007 26.6208C28.9821 26.6162 28.9549 26.6047 28.9284 26.5933C28.8997 26.5894 28.8733 26.5779 28.8431 26.5672C26.1952 25.687 23.5714 24.7448 20.9824 23.7253C19.6629 23.2033 18.3564 22.6614 17.0634 22.0882C17.0369 22.0767 17.0135 22.0644 16.9863 22.053C16.9599 22.0415 16.9297 22.0308 16.9025 22.0162C15.7628 21.5103 14.6352 20.9837 13.5219 20.4257C11.1051 19.2134 8.75099 17.8785 6.59699 16.3064C5.52151 15.5272 4.49964 14.6616 3.5737 13.7469C3.1213 13.2892 2.69835 12.8101 2.35094 12.3111C2.00956 11.8105 1.74522 11.2824 1.6493 10.7826C1.56396 10.2836 1.64401 9.81437 1.96047 9.36891C2.27541 8.93034 2.79805 8.56066 3.38262 8.2966C3.96265 8.01188 4.60765 7.82129 5.27454 7.69577C5.83041 7.58479 6.40365 7.52203 6.9852 7.49906C7.09773 7.49141 7.21026 7.48682 7.32431 7.48605C7.25482 7.46692 7.18156 7.44855 7.10906 7.43324C5.81757 7.11867 4.44677 7.05667 3.06692 7.37737C2.34867 7.56718 1.61154 7.87334 0.986185 8.46881C0.67804 8.76578 0.404636 9.13853 0.233193 9.56945C0.0594837 9.99653 -0.00697891 10.4665 0.000573664 10.9127C0.0262524 11.8166 0.324579 12.6103 0.681816 13.3099C1.04358 14.0156 1.48163 14.6417 1.9514 15.2249V15.2257Z" fill="white"/>
</svg>
