<svg width="38" height="23" viewBox="0 0 38 23" fill="none" xmlns="http://www.w3.org/2000/svg">
<path d="M21.1771 0.546924C21.4775 0.658685 21.7743 0.779623 22.0662 0.91082C22.3587 1.0404 22.6448 1.18563 22.9277 1.33195L22.9826 1.34274L22.99 1.3449L22.9362 1.33411L23.2969 1.53387L23.3054 1.53765L23.3097 1.54035C23.4717 1.63807 23.6379 1.72608 23.7934 1.83568L24.266 2.15098L24.737 2.46683C24.8877 2.57859 25.0369 2.69305 25.185 2.80967L25.1957 2.81723C25.4722 3.04075 25.7737 3.2972 26.0417 3.5488C26.3224 3.80903 26.5851 4.07359 26.8408 4.35218C27.3507 4.90666 27.8168 5.50541 28.2281 6.12577L28.242 6.14466L28.2926 6.21755L28.2787 6.19919L28.4588 6.48534L28.486 6.52206C28.4892 6.53771 28.544 6.62248 28.5781 6.68133L28.6927 6.87299C28.7705 7.00473 28.8371 7.13161 28.9095 7.26065C29.0518 7.52034 29.1775 7.79029 29.3011 8.06025C29.5637 8.59313 29.771 9.15032 29.9543 9.71236C30.3064 10.8424 30.5429 12.0086 30.6133 13.1829C30.6548 13.7692 30.6554 14.3577 30.6186 14.9424C30.5882 15.5271 30.5115 16.1086 30.4044 16.6815C30.2041 17.764 29.869 18.8162 29.4242 19.8129C29.3975 19.8723 29.3245 20.0299 29.2974 20.0893L30.65 20.572C31.1231 19.3842 31.4545 18.1414 31.6181 16.8791C31.7006 16.2485 31.7491 15.6135 31.748 14.9791C31.7534 14.3453 31.7182 13.7114 31.6399 13.0846C31.4955 11.8282 31.1764 10.6021 30.739 9.42945C30.5131 8.84473 30.2622 8.27081 29.9574 7.72712C29.8131 7.45123 29.666 7.1775 29.5014 6.91187C29.4178 6.78067 29.3347 6.64246 29.251 6.51666L29.121 6.32391C29.0731 6.2548 29.048 6.21053 28.966 6.10039L28.9932 6.1371L28.7848 5.84285L28.7774 5.8326L28.771 5.8245L28.7167 5.75485L28.7305 5.77375C28.258 5.13936 27.7454 4.55194 27.1871 4.00772C26.9095 3.73615 26.6171 3.47321 26.3224 3.22863C26.0188 2.97434 25.7258 2.75028 25.3949 2.51326C25.2388 2.40366 25.0811 2.29568 24.9213 2.19094L24.4248 1.89615L23.9282 1.60298C23.7657 1.50094 23.5899 1.41995 23.42 1.32979L23.4429 1.34544C23.4296 1.33519 23.4141 1.32601 23.3981 1.31899L23.4077 1.32331L23.0311 1.14136L23.0247 1.14028C22.7279 1.00692 22.4317 0.876806 22.1291 0.762346C21.827 0.646267 21.5218 0.540985 21.2133 0.445422C20.9048 0.350399 20.5937 0.265633 20.2804 0.192746C19.9666 0.121479 19.6497 0.0647886 19.3353 0C19.6465 0.0820656 19.9587 0.156033 20.2671 0.244037C20.5751 0.334201 20.8798 0.435164 21.1803 0.546924H21.1771ZM23.0193 1.1392L22.9746 1.13056L22.9671 1.12894L23.0188 1.1392H23.0193Z" fill="white"/>
<path d="M25.3889 2.51025C25.3889 2.51025 25.3917 2.51196 25.3928 2.5131C25.3951 2.5148 25.3979 2.5165 25.4001 2.51821L25.3889 2.51025Z" fill="white"/>
<path d="M16.6794 12.541C16.6794 12.541 16.674 12.5388 16.6714 12.5377C16.4039 12.4362 16.0267 12.224 15.8339 11.8596C15.4881 10.9445 15.1504 10.038 14.8669 9.09961C14.9106 10.0542 15.014 11.0157 15.1221 11.966C15.0838 12.2116 14.973 12.4189 14.665 12.6495C13.9618 13.0841 13.3353 13.6262 12.8419 14.1115C12.8606 14.1196 12.8824 14.1294 12.9005 14.1353C12.9224 14.145 12.9415 14.1558 12.9623 14.1607C13.6911 14.4727 14.4274 14.7762 15.1685 15.0683C16.8275 15.7242 18.5094 16.3522 20.2068 16.9623C20.2281 16.9698 20.2489 16.9774 20.2707 16.9871C20.2915 16.9925 20.3122 17 20.3336 17.0076C20.2062 16.0833 20.0203 15.0909 19.8285 14.327C19.7619 14.0559 19.5818 13.8249 19.3384 13.692C18.5499 13.2623 17.5259 12.8363 16.6794 12.541Z" fill="white"/>
<path d="M10.2463 8.10873C10.6991 7.92894 11.1216 7.99535 11.5595 8.09739C11.5595 8.09739 11.5622 8.09361 11.5638 8.09199C11.7433 8.13302 11.9282 8.17783 12.1152 8.21941C12.5457 8.31767 12.9846 8.41863 13.3869 8.49854C13.7891 8.57844 14.1578 8.63837 14.4487 8.65457C14.6628 8.66537 15.0033 8.57412 15.2041 8.40028C15.6729 7.99373 16.5467 7.15741 17.2211 6.49225C17.2398 6.47821 17.2579 6.45932 17.2755 6.44042H17.2776C17.3399 6.37887 17.3975 6.31894 17.454 6.26711C17.4587 6.25955 17.4646 6.25523 17.4721 6.24983C17.8684 5.90807 18.2121 5.8854 18.6436 5.94641V5.94425C19.0128 6.05115 19.3809 6.16453 19.7453 6.28709C20.0895 6.40371 20.431 6.52788 20.7666 6.6661C21.1023 6.80593 21.4342 6.95657 21.7443 7.15309C21.4757 6.89988 21.1715 6.68392 20.8631 6.47929C20.5535 6.27521 20.2355 6.08462 19.9132 5.90105C19.4502 5.6392 18.9782 5.39516 18.5003 5.15922C18.2089 4.98429 17.9057 4.77697 17.6601 4.22627C17.6559 4.21655 17.6521 4.20845 17.6479 4.19873C17.3613 3.55732 17.0123 2.88784 16.7379 2.39221C16.7353 2.38681 16.7321 2.38141 16.7289 2.37655C16.6474 2.19406 16.5973 2.00078 16.658 1.81451C16.7012 1.72543 16.7443 1.63634 16.7928 1.54834C16.9228 1.31672 17.0634 1.0878 17.2382 0.879395C16.991 0.992775 16.7566 1.14341 16.5291 1.30484C16.4156 1.38637 16.3043 1.47167 16.1945 1.56399C16.1055 1.6412 16.0208 1.71247 15.9308 1.81613C15.8434 1.80641 15.7545 1.80911 15.6666 1.82909C15.5637 1.8496 15.4518 1.87228 15.3336 1.89928C14.2681 2.13899 12.6501 2.58981 11.7641 2.9278C11.7193 2.94507 11.6773 2.96451 11.6384 2.98826C11.6373 2.9888 11.6362 2.98988 11.6357 2.99042C11.527 2.93535 11.4178 2.8873 11.3123 2.85383C11.1653 2.80632 11.0214 2.7723 10.8787 2.74207C10.5936 2.68268 10.3123 2.64003 10.03 2.60007C10.2708 2.75341 10.5105 2.9089 10.7359 3.07357C10.8078 3.12594 10.8765 3.18047 10.9431 3.235C11.1631 3.47904 11.1381 3.69392 11.0864 3.9169C11.0838 3.92716 11.0811 3.93796 11.0784 3.94822C10.8147 4.88873 10.6634 5.76446 10.5792 6.38103C10.5782 6.38643 10.5771 6.39399 10.576 6.39885C10.576 6.40155 10.5755 6.40317 10.575 6.40587C10.4818 7.02028 10.2505 7.27295 10.0214 7.51969C9.80302 7.70164 9.59045 7.89006 9.38693 8.08713C8.98044 8.47964 8.6123 8.90185 8.27454 9.34133C8.71033 9.00119 9.16424 8.69182 9.63467 8.42565C9.83445 8.31227 10.038 8.20807 10.2436 8.10873H10.2463Z" fill="white"/>
<path d="M21.9137 12.0492C21.3996 12.4805 20.894 12.9206 20.4225 13.3946C20.9792 13.0312 21.5594 12.7105 22.1428 12.4012C22.4347 12.2473 22.7293 12.0999 23.0245 11.9617C23.1055 11.9239 23.1875 11.8888 23.269 11.8526C23.7607 11.6842 23.9541 11.8526 24.3601 12.0486C24.9568 12.4152 25.7719 12.9006 26.5284 13.251C26.8758 13.4124 27.2791 13.2645 27.4437 12.9162C27.7868 12.1922 28.2695 11.0395 28.5939 10.1762C28.5993 10.1676 28.6024 10.1595 28.6067 10.146C28.6078 10.1417 28.6088 10.1384 28.6104 10.1352C28.6978 9.87334 28.864 9.90033 29.0755 9.91383C29.2588 9.94082 29.4426 9.97538 29.6232 10.0391L29.6243 10.038C29.4852 9.86524 29.3158 9.71244 29.14 9.56829C29.0516 9.49648 28.9599 9.42737 28.8635 9.36097C28.774 9.30104 28.6882 9.24327 28.5705 9.18928C28.5705 9.18928 28.5705 9.18874 28.5705 9.1882C28.1123 8.36376 27.2141 6.97567 25.9264 5.97252C25.9253 5.97198 25.9248 5.9709 25.9237 5.97036C25.9221 5.96928 25.9211 5.9682 25.9195 5.96712C25.8992 5.94877 25.8774 5.93257 25.855 5.91421C25.846 5.90719 25.8364 5.90125 25.8268 5.89477C25.701 5.79219 25.6083 5.68475 25.5476 5.59081C25.4848 5.44611 25.4198 5.31654 25.3526 5.1767C25.2519 4.97316 25.1464 4.77339 25.0362 4.57579C24.9259 4.37872 24.8119 4.18381 24.6872 3.99539C24.5615 3.80912 24.4304 3.62015 24.2642 3.47168L24.2626 3.47276C24.3825 3.66011 24.4555 3.86797 24.5258 4.07583C24.5945 4.28424 24.6515 4.4975 24.7043 4.71076C24.757 4.92457 24.8044 5.13891 24.8465 5.35433C24.8689 5.47257 24.8923 5.59837 24.9115 5.71769C24.8827 5.85914 24.7943 5.92393 24.7139 5.97144C24.6467 6.00869 24.5759 6.04919 24.5039 6.08752C24.0255 6.3483 23.4842 6.64578 22.9446 7.1074C22.7517 7.27153 22.6654 7.53339 22.7171 7.79038L22.7922 8.16616C22.9041 8.7309 23.0506 9.46571 23.1923 10.1249V10.1276C23.1923 10.1276 23.1934 10.1314 23.1939 10.1341C23.3404 10.802 23.1278 11.1065 22.829 11.3235H22.8295C22.7874 11.3548 22.7448 11.3862 22.7027 11.418C22.4326 11.6232 22.1699 11.8337 21.9121 12.0486L21.9137 12.0492Z" fill="white"/>
<path d="M24.5593 18.4968C24.9024 18.6172 25.2455 18.7371 25.5907 18.8569L27.9641 19.6824L28.0195 19.7019L28.0749 19.7213C28.2193 19.3234 28.3509 18.9357 28.4756 18.5378V18.5357C28.5491 18.4639 28.6386 18.3867 28.7244 18.3078C28.8155 18.2252 28.905 18.1399 28.9913 18.0525C29.1644 17.8775 29.3232 17.6929 29.466 17.5012V17.5001C29.2481 17.5973 29.0286 17.6778 28.8075 17.742C28.7659 17.7544 28.7233 17.7636 28.6818 17.7749C28.4276 17.8327 28.2694 17.7976 28.1399 17.7452C28.1165 17.7355 28.0936 17.7264 28.0717 17.7156C27.9087 17.6389 27.7223 17.5649 27.5374 17.4904C27.5374 17.4904 27.5374 17.4904 27.5363 17.4904C27.5337 17.4893 27.531 17.4883 27.5283 17.4866C27.5108 17.4802 27.4942 17.4731 27.4777 17.4645C27.4756 17.464 27.474 17.4629 27.4719 17.4623C27.2966 17.3814 27.1533 17.2615 27.1724 16.9338C27.1724 16.9257 27.1724 16.9208 27.1724 16.9143C27.2145 16.558 27.2401 16.2011 27.246 15.8453C27.2556 15.1775 27.2018 14.5091 27.0446 13.873C27.0643 14.5274 26.9769 15.171 26.8331 15.794C26.7356 16.2125 26.6088 16.6217 26.4607 17.0191C26.3824 17.1756 26.287 17.3187 26.0723 17.444C25.58 17.7156 24.9668 18.0919 24.4122 18.4455C24.4362 18.4547 24.4602 18.4644 24.4858 18.4709C24.5097 18.4801 24.5337 18.4898 24.5593 18.4963V18.4968Z" fill="white"/>
<path d="M5.91178 9.40778C5.91178 9.40778 5.91071 9.40509 5.91018 9.40347C5.8958 9.36027 5.88141 9.31708 5.86756 9.27497C5.80363 9.07088 5.74875 8.86086 5.70187 8.64814C5.60811 8.22215 5.5495 7.78537 5.54045 7.33887C5.43176 7.77079 5.36943 8.22161 5.34652 8.67675C5.3348 8.90459 5.33161 9.13351 5.34013 9.36513C5.34652 9.48121 5.35079 9.59297 5.36197 9.70905C5.34972 9.86292 5.32521 9.94661 5.23891 10.0222C5.21067 10.0384 5.1851 10.0573 5.16325 10.074C5.15899 10.0773 5.15473 10.081 5.151 10.0843C5.16805 10.0951 5.18563 10.1086 5.20481 10.1188C5.22239 10.1323 5.23944 10.1431 5.25702 10.1566C5.35611 10.2209 5.45361 10.2878 5.55323 10.3515C6.34278 10.8747 7.17015 11.3601 8.02043 11.8174C8.04547 11.8314 8.06785 11.8438 8.09182 11.853C8.11473 11.8676 8.13658 11.88 8.15842 11.8897C8.02949 11.2472 7.88938 10.642 7.77217 10.229C7.69758 9.96659 7.47755 9.78464 7.20745 9.76358V9.76142C6.96398 9.74199 6.6619 9.73119 6.3822 9.73227C6.17549 9.71931 6.00128 9.6745 5.91231 9.40724L5.91178 9.40778Z" fill="white"/>
<path d="M1.3764 10.3227C1.55007 10.5376 1.72961 10.7444 1.91448 10.9447C8.55051 17.3884 19.495 20.4162 25.4608 21.6526C25.4608 21.6526 25.4608 21.6526 25.4608 21.6521C25.9578 21.7525 26.4565 21.8497 26.9562 21.9398C26.9578 21.9425 26.96 21.9447 26.9616 21.9474C27.2823 22.0068 27.5785 22.0597 27.8486 22.1056C27.8518 22.1045 27.8555 22.1029 27.8587 22.1018L27.8635 22.1007C27.8731 22.1007 27.8811 22.104 27.8912 22.1045C27.8933 22.1077 27.8944 22.111 27.896 22.1137C27.9988 22.131 28.0974 22.1477 28.1922 22.1633C28.1938 22.1612 28.1954 22.1585 28.197 22.1563C28.2402 22.1639 28.2833 22.1714 28.3265 22.179C28.3254 22.1812 28.3243 22.1828 28.3227 22.1849C28.3739 22.193 28.4234 22.2011 28.4719 22.2092C28.473 22.2071 28.474 22.2049 28.4751 22.2028C28.5385 22.213 28.5987 22.2217 28.6616 22.2325C28.6605 22.2346 28.6594 22.2368 28.6579 22.2395C28.7426 22.253 28.8214 22.2648 28.896 22.2762C28.8965 22.2735 28.8976 22.2713 28.8981 22.2681C28.9413 22.2756 28.9844 22.2832 29.0271 22.2886C29.0255 22.2908 29.0239 22.2929 29.0217 22.2951C29.0846 22.3043 29.1432 22.3129 29.197 22.321C29.197 22.3188 29.1981 22.3167 29.1981 22.3145C29.3041 22.3323 29.4122 22.3475 29.5183 22.3637C29.5177 22.3642 29.5167 22.3653 29.5161 22.3658C29.6083 22.3782 29.6568 22.3842 29.6568 22.3842C30.1746 22.4576 30.6914 22.5262 31.2098 22.5899C32.2849 22.7157 33.3605 22.8236 34.4388 22.8971C35.3195 22.9581 36.1996 22.9964 37.0823 23.0002C36.7302 22.9165 36.3775 22.8307 36.0275 22.7443C32.6114 21.9166 29.2364 21.0328 25.8934 20.0502C25.8571 20.041 25.8183 20.0302 25.7815 20.0183C25.6856 19.9908 25.5865 19.9611 25.4895 19.9308C25.3542 19.892 25.2216 19.8531 25.0857 19.8121C24.6323 19.6771 24.179 19.5421 23.7261 19.4001C23.7032 19.3953 23.6798 19.3882 23.6563 19.3812C23.6329 19.3742 23.6121 19.3688 23.5913 19.3612C22.5439 19.0395 21.4992 18.7069 20.4614 18.3608C20.4438 18.3576 20.4246 18.3495 20.406 18.3414C20.3857 18.3387 20.3671 18.3306 20.3458 18.323C18.4779 17.7021 16.6271 17.0375 14.8008 16.3183C13.8701 15.9501 12.9484 15.5679 12.0363 15.1635C12.0177 15.1554 12.0012 15.1467 11.982 15.1386C11.9634 15.1305 11.942 15.123 11.9229 15.1127C11.1189 14.7558 10.3235 14.3844 9.53824 13.9908C7.83342 13.1356 6.17281 12.194 4.65339 11.085C3.89474 10.5354 3.17392 9.92477 2.52076 9.27959C2.20164 8.95672 1.90329 8.61874 1.65822 8.26672C1.41742 7.91363 1.23095 7.54109 1.16329 7.18853C1.10309 6.83652 1.15956 6.50555 1.38279 6.19133C1.60495 5.88196 1.97362 5.62119 2.38597 5.43492C2.79513 5.23408 3.2501 5.09964 3.72053 5.0111C4.11264 4.93281 4.517 4.88854 4.92723 4.87234C5.00661 4.86694 5.08599 4.8637 5.16643 4.86316C5.11742 4.84966 5.06574 4.83671 5.0146 4.82591C4.10358 4.60401 3.13663 4.56027 2.16328 4.7865C1.65663 4.92039 1.13665 5.13635 0.695531 5.5564C0.478166 5.76588 0.285308 6.02882 0.164372 6.33278C0.0418377 6.63405 -0.00504499 6.96555 0.000282591 7.28032C0.0183964 7.91795 0.228836 8.47783 0.48083 8.9713C0.736021 9.46909 1.04502 9.91074 1.3764 10.3221V10.3227Z" fill="white"/>
</svg>
