<svg width="11" height="16" viewBox="0 0 11 16" fill="none" xmlns="http://www.w3.org/2000/svg">
<path d="M10.1488 8.35805C10.1488 9.35381 8.0208 10.196 5.49996 10.196C2.97913 10.196 0.851153 9.35381 0.851153 8.35805C0.851153 7.87605 1.38151 7.38876 2.29163 7.03918C2.71068 7.54236 4.11842 7.8072 5.49996 7.8072C6.88151 7.8072 8.2827 7.54766 8.7083 7.03918C9.61842 7.39406 10.1488 7.87076 10.1488 8.35805Z" fill="#C1C1C1"/>
<path d="M6.46904 10.6409L5.49999 15.5508L4.53094 10.6462C4.84523 10.6726 5.16606 10.6832 5.49999 10.6832C5.82737 10.6779 6.15475 10.6621 6.46904 10.6409Z" fill="#C1C1C1"/>
<path d="M11 0C10.8494 0.92691 9.87381 1.64195 8.69524 1.64195L2.30476 1.64195C1.12619 1.64195 0.144048 0.92691 0 0L11 0Z" fill="#C1C1C1"/>
<path d="M8.24344 2.1239V6.72137C8.23035 6.90676 7.29404 7.32519 5.49999 7.32519C3.70594 7.32519 2.78928 6.91205 2.75654 6.72667L2.75654 2.1239L8.24344 2.1239Z" fill="#C1C1C1"/>
</svg>
