<svg width="22" height="24" viewBox="0 0 22 24" fill="none" xmlns="http://www.w3.org/2000/svg">
<path d="M8.49957 15.9991C4.91599 15.9991 2 13.0833 2 9.5C2 5.91667 4.91599 3 8.49957 3C12.0831 3 15 5.9158 15 9.5C15 13.0842 12.084 16 8.49957 16V15.9991ZM8.49957 4.85764C5.9395 4.85764 3.85689 6.9401 3.85689 9.5C3.85689 12.0599 5.9395 14.1424 8.49957 14.1424C11.0596 14.1424 13.1422 12.0599 13.1422 9.5C13.1422 6.9401 11.0596 4.85764 8.49957 4.85764Z" fill="#EC5E30"/>
<path d="M19.0618 21C18.8215 21 18.5811 20.9088 18.3978 20.7254L12.275 14.6023C11.9083 14.2356 11.9083 13.6417 12.275 13.275C12.6417 12.9083 13.2355 12.9083 13.6022 13.275L19.725 19.3982C20.0917 19.7648 20.0917 20.3587 19.725 20.7254C19.5417 20.9088 19.3013 21 19.061 21H19.0618Z" fill="#EC5E30"/>
</svg>
