<svg width="23" height="18" viewBox="0 0 23 18" fill="none" xmlns="http://www.w3.org/2000/svg">
<path d="M22.7484 15.4243H14.5303C14.3855 15.4243 14.2711 15.312 14.2711 15.1697C14.2711 15.0275 14.3855 14.9151 14.5303 14.9151H22.4816V0.509151H0.526019V14.9151H8.47729C8.62214 14.9151 8.73649 15.0275 8.73649 15.1697C8.73649 15.312 8.62214 15.4243 8.47729 15.4243H0.259198C0.114352 15.4243 0 15.312 0 15.1697V0.254576C0 0.112313 0.114352 0 0.259198 0H22.7408C22.8856 0 23 0.112313 23 0.254576V15.1697C23.0076 15.312 22.8856 15.4243 22.7484 15.4243Z" fill="#18AE00"/>
<path d="M21.5212 14.1591C21.4755 14.1591 21.4297 14.1442 21.3916 14.1217L18.4032 12.4295H13.1049C13.0592 12.4295 13.0134 12.4145 12.9677 12.3921C12.7237 12.2423 12.4569 12.1375 12.1825 12.0701C11.7403 11.9578 11.2676 11.9653 10.8255 12.0701C10.551 12.1375 10.2842 12.2498 10.0403 12.3921C10.0021 12.4145 9.94878 12.4295 9.90304 12.4295H4.60473L1.61634 14.1217C1.53248 14.1666 1.43337 14.1666 1.35714 14.1217C1.27328 14.0768 1.22754 13.9944 1.22754 13.8971V1.5202C1.22754 1.37794 1.34189 1.26562 1.48674 1.26562H21.5212C21.666 1.26562 21.7804 1.37794 21.7804 1.5202V13.9046C21.7804 13.9944 21.7347 14.0768 21.6508 14.1292C21.6127 14.1516 21.5669 14.1591 21.5212 14.1591ZM13.1811 11.9204H18.4794C18.5252 11.9204 18.5709 11.9353 18.609 11.9578L21.262 13.4628V1.77478H1.74593V13.4628L4.3989 11.9578C4.43702 11.9353 4.48276 11.9204 4.5285 11.9204H9.82681C10.1013 11.7631 10.3909 11.6508 10.6959 11.5759C11.2219 11.4487 11.7784 11.4487 12.3044 11.5759C12.617 11.6508 12.9067 11.7631 13.1811 11.9204Z" fill="#18AE00"/>
<path d="M18.4718 12.4367H13.1048C12.96 12.4367 12.8456 12.3244 12.8456 12.1821C12.8456 12.0398 12.96 11.9275 13.1048 11.9275H18.2126V3.93835H4.79525V11.92H9.90297C10.0478 11.92 10.1622 12.0324 10.1622 12.1746C10.1622 12.3169 10.0478 12.4292 9.90297 12.4292H4.53605C4.39121 12.4292 4.27686 12.3169 4.27686 12.1746V3.68378C4.27686 3.54151 4.39121 3.4292 4.53605 3.4292H18.4794C18.6242 3.4292 18.7386 3.54151 18.7386 3.68378V12.1821C18.7309 12.3169 18.6166 12.4367 18.4718 12.4367Z" fill="#18AE00"/>
<path d="M4.53618 3.93869C4.48281 3.93869 4.42945 3.92371 4.38371 3.89376L1.33432 1.72987C1.21997 1.64751 1.18948 1.49027 1.27333 1.37047C1.35719 1.25816 1.51728 1.22821 1.63926 1.31057L4.68865 3.47446C4.803 3.55682 4.83349 3.71406 4.74963 3.83386C4.69627 3.90125 4.61241 3.93869 4.53618 3.93869Z" fill="#18AE00"/>
<path d="M18.4718 3.93835C18.388 3.93835 18.3117 3.90091 18.2584 3.83352C18.1745 3.72121 18.1974 3.55649 18.3194 3.47412L21.3688 1.31023C21.4831 1.22787 21.6508 1.25033 21.7347 1.37013C21.8185 1.48993 21.7957 1.64717 21.6737 1.72953L18.6243 3.89342C18.5786 3.92337 18.5252 3.93835 18.4718 3.93835Z" fill="#18AE00"/>
<path d="M9.10254 3.93848C8.99582 3.93848 8.90433 3.87858 8.85859 3.78124L7.97427 1.61734C7.92091 1.49006 7.98189 1.34031 8.11912 1.28789C8.24872 1.23548 8.40118 1.29538 8.45455 1.43016L9.33887 3.59405C9.39224 3.72134 9.33125 3.87109 9.19403 3.9235C9.16353 3.93099 9.13304 3.93848 9.10254 3.93848Z" fill="#18AE00"/>
<path d="M13.9052 3.93848C13.8747 3.93848 13.8366 3.931 13.8061 3.92351C13.6765 3.8711 13.6079 3.72135 13.6613 3.59406L14.5456 1.43017C14.599 1.30288 14.7514 1.23549 14.881 1.2879C15.0106 1.34031 15.0792 1.49007 15.0259 1.61735L14.1416 3.78125C14.1034 3.87858 14.012 3.93848 13.9052 3.93848Z" fill="#18AE00"/>
<path d="M18.4718 8.49841H1.48674C1.34189 8.49841 1.22754 8.3861 1.22754 8.24383C1.22754 8.10157 1.34189 7.98926 1.48674 7.98926H18.4718C18.6167 7.98926 18.731 8.10157 18.731 8.24383C18.731 8.3861 18.6167 8.49841 18.4718 8.49841Z" fill="#18AE00"/>
<path d="M21.521 8.49841H18.4716C18.3268 8.49841 18.2124 8.3861 18.2124 8.24383C18.2124 8.10157 18.3268 7.98926 18.4716 7.98926H21.521C21.6658 7.98926 21.7802 8.10157 21.7802 8.24383C21.7802 8.3861 21.6658 8.49841 21.521 8.49841Z" fill="#18AE00"/>
<path d="M9.01115 12.4367C8.8663 12.4367 8.75195 12.3244 8.75195 12.1821V3.68378C8.75195 3.54151 8.8663 3.4292 9.01115 3.4292C9.156 3.4292 9.27035 3.54151 9.27035 3.68378V12.1821C9.27035 12.3169 9.156 12.4367 9.01115 12.4367Z" fill="#18AE00"/>
<path d="M13.9965 12.4367C13.8517 12.4367 13.7373 12.3244 13.7373 12.1821V3.68378C13.7373 3.54151 13.8517 3.4292 13.9965 3.4292C14.1413 3.4292 14.2557 3.54151 14.2557 3.68378V12.1821C14.2557 12.3169 14.1413 12.4367 13.9965 12.4367Z" fill="#18AE00"/>
<path d="M11.504 17.9998C9.67437 17.9998 8.18018 16.5398 8.18018 14.7353C8.18018 12.9308 9.66675 11.4707 11.504 11.4707C13.3413 11.4707 14.8278 12.9308 14.8278 14.7353C14.8278 16.5398 13.3336 17.9998 11.504 17.9998ZM11.504 11.9873C9.95644 11.9873 8.70619 13.2228 8.70619 14.7353C8.70619 16.2477 9.96407 17.4832 11.504 17.4832C13.0439 17.4832 14.3018 16.2477 14.3018 14.7353C14.3018 13.2228 13.0516 11.9873 11.504 11.9873Z" fill="#FE3400"/>
<path d="M11.504 12.8333C11.4583 12.8333 11.4126 12.8183 11.3744 12.7958L10.635 12.3765C10.5511 12.3316 10.5054 12.2492 10.5054 12.1519V11.8224C10.5054 11.6802 10.6197 11.5679 10.7646 11.5679C10.9094 11.5679 11.0238 11.6802 11.0238 11.8224V12.0096L11.504 12.2867L11.9843 12.0096V11.8224C11.9843 11.6802 12.0987 11.5679 12.2435 11.5679C12.3884 11.5679 12.5027 11.6802 12.5027 11.8224V12.1519C12.5027 12.2417 12.457 12.3241 12.3731 12.3765L11.6336 12.7958C11.5955 12.8183 11.5498 12.8333 11.504 12.8333Z" fill="#FE3400"/>
<path d="M14.1569 14.3306C14.1111 14.3306 14.0654 14.3156 14.0273 14.2932L13.2878 13.8739C13.2039 13.829 13.1582 13.7466 13.1582 13.6493V12.8181C13.1582 12.7283 13.2039 12.6459 13.2878 12.5935L13.5775 12.4288C13.6995 12.3614 13.8596 12.3988 13.9358 12.5186C14.012 12.6384 13.9663 12.7957 13.8443 12.8705L13.6842 12.9604V13.507L14.1645 13.784L14.3246 13.6942C14.4466 13.6268 14.6067 13.6642 14.6829 13.784C14.7515 13.9038 14.7134 14.0611 14.5914 14.1359L14.3017 14.3007C14.2484 14.3231 14.2026 14.3306 14.1569 14.3306Z" fill="#FE3400"/>
<path d="M13.7071 17.0862C13.6614 17.0862 13.6156 17.0713 13.5775 17.0488L13.2878 16.8841C13.2039 16.8392 13.1582 16.7568 13.1582 16.6595V15.8134C13.1582 15.7235 13.2039 15.6411 13.2878 15.5887L14.0273 15.1694C14.1111 15.1245 14.2102 15.1245 14.2865 15.1694L14.5762 15.3342C14.6981 15.4015 14.7439 15.5588 14.6676 15.6861C14.599 15.8059 14.4389 15.8508 14.3093 15.7759L14.1493 15.6861L13.669 15.9631V16.5097L13.8291 16.5996C13.951 16.6669 13.9968 16.8242 13.9205 16.9515C13.8824 17.0413 13.791 17.0862 13.7071 17.0862Z" fill="#FE3400"/>
<path d="M12.2435 17.9101C12.0987 17.9101 11.9843 17.7978 11.9843 17.6555V17.4683L11.504 17.1913L11.0238 17.4683V17.6555C11.0238 17.7978 10.9094 17.9101 10.7646 17.9101C10.6197 17.9101 10.5054 17.7978 10.5054 17.6555V17.3261C10.5054 17.2362 10.5511 17.1538 10.635 17.1014L11.3744 16.6821C11.4583 16.6372 11.5574 16.6372 11.6336 16.6821L12.3731 17.1014C12.457 17.1464 12.5027 17.2287 12.5027 17.3261V17.6555C12.5103 17.7978 12.3884 17.9101 12.2435 17.9101Z" fill="#FE3400"/>
<path d="M9.3007 17.0866C9.20922 17.0866 9.12536 17.0416 9.072 16.9593C9.00339 16.8395 9.0415 16.6822 9.16348 16.6074L9.32357 16.5175V15.9709L8.84329 15.6939L8.6832 15.7837C8.56123 15.8511 8.40113 15.8137 8.3249 15.6939C8.25629 15.5741 8.2944 15.4168 8.41638 15.342L8.70607 15.1772C8.78993 15.1323 8.88903 15.1323 8.96527 15.1772L9.70475 15.5966C9.7886 15.6415 9.83434 15.7238 9.83434 15.8212V16.6673C9.83434 16.7571 9.7886 16.8395 9.70475 16.8919L9.41505 17.0566C9.39218 17.0716 9.34644 17.0866 9.3007 17.0866Z" fill="#FE3400"/>
<path d="M8.85078 14.3307C8.80504 14.3307 8.7593 14.3157 8.72118 14.2933L8.43149 14.1285C8.30951 14.0611 8.26377 13.9039 8.34 13.7766C8.40862 13.6568 8.56871 13.6119 8.69831 13.6868L8.8584 13.7766L9.33868 13.4996V12.953L9.17859 12.8631C9.05661 12.7957 9.01087 12.6385 9.0871 12.5112C9.15572 12.3914 9.31581 12.3465 9.44541 12.4214L9.7351 12.5861C9.81896 12.631 9.8647 12.7134 9.8647 12.8107V13.6568C9.8647 13.7467 9.81896 13.829 9.7351 13.8814L8.99562 14.3007C8.94226 14.3232 8.89652 14.3307 8.85078 14.3307Z" fill="#FE3400"/>
<path d="M11.5036 15.9854C11.4578 15.9854 11.4121 15.9704 11.374 15.9479L10.4973 15.4538C10.4134 15.4088 10.3677 15.3265 10.3677 15.2291V14.2408C10.3677 14.1509 10.4134 14.0686 10.4973 14.0162L11.374 13.522C11.4578 13.477 11.5569 13.477 11.6332 13.522L12.5099 14.0162C12.5937 14.0611 12.6395 14.1434 12.6395 14.2408V15.2291C12.6395 15.319 12.5937 15.4013 12.5099 15.4538L11.6332 15.9479C11.5951 15.9779 11.5493 15.9854 11.5036 15.9854ZM10.8937 15.0869L11.5036 15.4313L12.1134 15.0869V14.3905L11.5036 14.0461L10.8937 14.3905V15.0869Z" fill="#FE3400"/>
<path d="M11.5038 14.0011C11.359 14.0011 11.2446 13.8888 11.2446 13.7465V12.571C11.2446 12.4287 11.359 12.3164 11.5038 12.3164C11.6487 12.3164 11.763 12.4287 11.763 12.571V13.7465C11.763 13.8888 11.6487 14.0011 11.5038 14.0011Z" fill="#FE3400"/>
<path d="M12.3807 14.5028C12.2893 14.5028 12.2054 14.4578 12.152 14.3755C12.0834 14.2557 12.1216 14.0984 12.2435 14.0236L13.2803 13.4395C13.4023 13.3721 13.5624 13.4096 13.6386 13.5294C13.7149 13.6492 13.6691 13.8064 13.5471 13.8813L12.5103 14.4653C12.4646 14.4878 12.4189 14.5028 12.3807 14.5028Z" fill="#FE3400"/>
<path d="M13.4099 16.0754C13.3641 16.0754 13.3184 16.0604 13.2803 16.038L12.2435 15.454C12.1215 15.3866 12.0758 15.2293 12.152 15.102C12.2206 14.9822 12.3807 14.9373 12.5103 15.0122L13.5471 15.5962C13.6691 15.6636 13.7148 15.8208 13.6386 15.9481C13.5929 16.0305 13.5014 16.0754 13.4099 16.0754Z" fill="#FE3400"/>
<path d="M11.5038 17.1613C11.359 17.1613 11.2446 17.0489 11.2446 16.9067V15.7311C11.2446 15.5889 11.359 15.4766 11.5038 15.4766C11.6487 15.4766 11.763 15.5889 11.763 15.7311V16.9067C11.763 17.0489 11.6487 17.1613 11.5038 17.1613Z" fill="#FE3400"/>
<path d="M9.59804 16.0755C9.50655 16.0755 9.4227 16.0306 9.36933 15.9482C9.30072 15.8284 9.33884 15.6712 9.46081 15.5963L10.4976 15.0123C10.6196 14.9449 10.7797 14.9823 10.8559 15.1021C10.9245 15.2219 10.8864 15.3792 10.7644 15.454L9.72763 16.0381C9.68189 16.068 9.64378 16.0755 9.59804 16.0755Z" fill="#FE3400"/>
<path d="M10.6272 14.5032C10.5814 14.5032 10.5357 14.4882 10.4976 14.4657L9.46078 13.8817C9.33881 13.8143 9.29307 13.6571 9.3693 13.5298C9.43791 13.41 9.59801 13.3651 9.7276 13.4399L10.7644 14.024C10.8864 14.0913 10.9321 14.2486 10.8559 14.3759C10.8101 14.4507 10.7187 14.5032 10.6272 14.5032Z" fill="#FE3400"/>
</svg>
