<svg width="22" height="23" viewBox="0 0 22 23" fill="none" xmlns="http://www.w3.org/2000/svg">
<g clip-path="url(#clip0_177_2216)">
<path d="M11 22.5C17.0751 22.5 22 17.5751 22 11.5C22 5.42487 17.0751 0.5 11 0.5C4.92487 0.5 0 5.42487 0 11.5C0 17.5751 4.92487 22.5 11 22.5Z" fill="#2FB57D"/>
<path d="M10.3984 9.15381C10.3469 9.0335 10.291 8.91748 10.218 8.81006C10.1535 8.91318 10.1191 9.0335 10.1191 9.15381C10.1191 9.27412 10.1535 9.39873 10.218 9.49756C10.291 9.39014 10.3512 9.27412 10.3984 9.15381Z" fill="#FFFFFE"/>
<path d="M6.56133 8.80615C6.49258 8.91357 6.43242 9.02959 6.38086 9.1499C6.43242 9.27021 6.49258 9.38623 6.56133 9.49365C6.62578 9.39053 6.66016 9.27021 6.66016 9.1499C6.66445 9.02959 6.63008 8.90928 6.56133 8.80615Z" fill="#FFFFFE"/>
<path d="M11.0259 6.51572C10.3212 5.81104 9.38447 5.42432 8.39189 5.42432C7.39932 5.42432 6.4583 5.81104 5.75791 6.51572C5.40557 6.86807 5.13486 7.27627 4.9501 7.72314C4.76533 8.17002 4.6665 8.65127 4.6665 9.14971C4.6665 10.1466 5.05322 11.0833 5.75791 11.7837C6.4626 12.4841 7.39932 12.8751 8.39189 12.8751C8.81729 12.8751 9.23408 12.8021 9.6251 12.6646C9.63369 12.6603 9.64229 12.656 9.65088 12.656C10.1622 12.4712 10.6306 12.179 11.0259 11.7837C11.4212 11.3884 11.7177 10.92 11.8981 10.4087C11.8981 10.4001 11.9024 10.3915 11.9067 10.3829C12.0442 9.99189 12.1173 9.5751 12.1173 9.14971C12.1173 8.15713 11.7306 7.22041 11.0259 6.51572ZM10.5146 11.2767C9.93018 11.861 9.16104 12.1532 8.3876 12.1532C7.61416 12.1532 6.84932 11.861 6.26064 11.2767C5.69346 10.7095 5.37979 9.95322 5.37979 9.14971C5.37979 8.34619 5.69346 7.59424 6.26064 7.02275C6.84502 6.43838 7.61416 6.14189 8.3876 6.14189C9.16104 6.14189 9.92588 6.43408 10.5146 7.02275C11.6876 8.2001 11.6876 10.1079 10.5146 11.2767Z" fill="#FFFFFE"/>
<path d="M10.3083 7.2376C9.25127 6.18057 7.53252 6.18057 6.47119 7.2376C5.95986 7.74893 5.67627 8.43213 5.67627 9.154C5.67627 9.87588 5.95986 10.5591 6.47119 11.0704C7.52822 12.1274 9.24697 12.1274 10.3083 11.0704C11.3653 10.0134 11.3653 8.29463 10.3083 7.2376ZM10.3556 9.81572C10.347 9.82432 10.3427 9.83291 10.3384 9.83721C9.87861 10.4302 9.16103 10.7954 8.39189 10.7954C7.62275 10.7954 6.90518 10.4302 6.44541 9.83721L6.44111 9.83291C6.43252 9.82432 6.42822 9.82002 6.42393 9.81143C6.28643 9.62666 6.17041 9.42471 6.08877 9.20127C6.07588 9.16689 6.07588 9.13252 6.08877 9.09814C6.17041 8.87471 6.28643 8.67275 6.42393 8.48799C6.42822 8.47939 6.43252 8.4708 6.44111 8.4665L6.44541 8.46221C6.90518 7.86924 7.62275 7.504 8.39189 7.504C9.16103 7.504 9.87861 7.86924 10.3384 8.46221C10.3427 8.4665 10.347 8.4751 10.3513 8.47939C10.3513 8.47939 10.3513 8.48369 10.3556 8.48369C10.4931 8.66846 10.6091 8.87041 10.6907 9.09385C10.7036 9.12822 10.7036 9.1626 10.6907 9.19697C10.6091 9.42471 10.4974 9.63096 10.3556 9.81572Z" fill="#FFFFFE"/>
<path d="M10.0375 8.56084C9.63359 8.08818 9.03203 7.80029 8.3918 7.80029C7.75156 7.80029 7.15 8.08818 6.74609 8.56084C6.8793 8.72842 6.95664 8.93467 6.95664 9.15381C6.95664 9.37295 6.8793 9.5792 6.74609 9.74678C7.15 10.2194 7.75156 10.5073 8.3918 10.5073C9.03203 10.5073 9.63359 10.2194 10.0375 9.74678C9.9043 9.5792 9.82695 9.37295 9.82695 9.15381C9.82695 8.93467 9.9 8.72842 10.0375 8.56084ZM8.3918 9.79834C8.03516 9.79834 7.74727 9.51045 7.74727 9.15381C7.74727 8.79717 8.03516 8.50928 8.3918 8.50928C8.74844 8.50928 9.03633 8.79717 9.03633 9.15381C9.03633 9.51045 8.74844 9.79834 8.3918 9.79834Z" fill="#FFFFFE"/>
<path d="M12.3837 11.4616C12.3837 11.7581 12.2677 12.0374 12.0614 12.2437L11.7692 12.5358L11.4771 12.828C11.2708 13.0343 10.9915 13.1503 10.695 13.1503C10.4157 13.1503 10.1536 13.0472 9.95166 12.8624C10.4243 12.6647 10.8583 12.3726 11.2321 11.9987C11.606 11.6249 11.8981 11.1909 12.0958 10.7183C12.2849 10.9202 12.3837 11.1823 12.3837 11.4616Z" fill="#FFFFFE"/>
<path d="M16.281 17.043C15.9587 17.3652 15.4388 17.3652 15.1208 17.043L13.0197 14.9418C12.865 14.7871 12.7791 14.5809 12.7791 14.3617C12.7791 14.25 12.8005 14.1469 12.8392 14.048C12.8779 13.9492 12.938 13.859 13.0154 13.7816C13.1701 13.627 13.3763 13.541 13.5955 13.541C13.8146 13.541 14.0208 13.627 14.1755 13.7816L16.2767 15.8828C16.599 16.2008 16.599 16.7207 16.281 17.043Z" fill="#FFFFFE"/>
<path d="M13.097 6.64912H17.1876C17.2693 6.64912 17.3337 6.58467 17.3337 6.50303C17.3337 6.42139 17.2693 6.35693 17.1876 6.35693H13.097C13.0154 6.35693 12.9509 6.42139 12.9509 6.50303C12.9509 6.58467 13.0154 6.64912 13.097 6.64912Z" fill="#FFFFFE"/>
<path d="M17.1876 7.57715H13.097C13.0154 7.57715 12.9509 7.6416 12.9509 7.72324C12.9509 7.80488 13.0154 7.86934 13.097 7.86934H17.1876C17.2693 7.86934 17.3337 7.80488 17.3337 7.72324C17.338 7.6459 17.2693 7.57715 17.1876 7.57715Z" fill="#FFFFFE"/>
<path d="M17.1876 8.80176H13.097C13.0154 8.80176 12.9509 8.86621 12.9509 8.94785C12.9509 9.02949 13.0154 9.09395 13.097 9.09395H17.1876C17.2693 9.09395 17.3337 9.02949 17.3337 8.94785C17.3337 8.86621 17.2693 8.80176 17.1876 8.80176Z" fill="#FFFFFE"/>
<path d="M17.1876 10.0264H13.097C13.0154 10.0264 12.9509 10.0908 12.9509 10.1725C12.9509 10.2541 13.0154 10.3186 13.097 10.3186H17.1876C17.2693 10.3186 17.3337 10.2541 17.3337 10.1725C17.338 10.0908 17.2693 10.0264 17.1876 10.0264Z" fill="#FFFFFE"/>
<path d="M17.1875 11.251H14.2313C14.1497 11.251 14.0852 11.3154 14.0852 11.3971C14.0852 11.4787 14.1497 11.5432 14.2313 11.5432H17.1875C17.2692 11.5432 17.3336 11.4787 17.3336 11.3971C17.3336 11.3154 17.2692 11.251 17.1875 11.251Z" fill="#FFFFFE"/>
<path d="M12.9208 13.4723C12.8821 13.5023 12.8434 13.5324 12.809 13.5711C12.7747 13.6098 12.7403 13.6441 12.7102 13.6828L11.8723 12.8449L12.0786 12.6387L12.9208 13.4723Z" fill="#FFFFFE"/>
<path d="M12.5254 17.4296C12.5254 17.5112 12.4609 17.5757 12.3793 17.5757H4.87266C4.79102 17.5757 4.72656 17.5112 4.72656 17.4296C4.72656 17.3479 4.79102 17.2835 4.87266 17.2835H5.65469V13.4507H6.22188V17.2835H7.44648V14.0608H8.01797V17.2835H9.23828V15.539H9.80977V17.2835H11.0344V14.6108H11.6016V17.2835H12.3836C12.4609 17.2792 12.5254 17.3479 12.5254 17.4296Z" fill="#FFFFFE"/>
</g>
<defs>
<clipPath id="clip0_177_2216">
<rect width="22" height="22" fill="white" transform="translate(0 0.5)"/>
</clipPath>
</defs>
</svg>
