<svg width="225" height="31" viewBox="0 0 225 31" fill="none" xmlns="http://www.w3.org/2000/svg">
<path d="M0 0.5H225L215.514 24.2139C213.996 28.0105 210.319 30.5 206.23 30.5H17.2076C12.9033 30.5 9.0819 27.7457 7.72076 23.6623L0 0.5Z" fill="#E01932"/>
<path d="M55.434 20.63C54.7407 20.63 54.095 20.5173 53.497 20.292C52.9077 20.058 52.392 19.733 51.95 19.317C51.5167 18.8923 51.1787 18.394 50.936 17.822C50.6933 17.25 50.572 16.626 50.572 15.95C50.572 15.274 50.6933 14.65 50.936 14.078C51.1787 13.506 51.521 13.012 51.963 12.596C52.405 12.1713 52.9207 11.8463 53.51 11.621C54.0993 11.387 54.745 11.27 55.447 11.27C56.1923 11.27 56.8727 11.4 57.488 11.66C58.1033 11.9113 58.6233 12.2883 59.048 12.791L57.956 13.818C57.6267 13.4627 57.2583 13.1983 56.851 13.025C56.4437 12.843 56.0017 12.752 55.525 12.752C55.0483 12.752 54.6107 12.83 54.212 12.986C53.822 13.142 53.4797 13.363 53.185 13.649C52.899 13.935 52.6737 14.273 52.509 14.663C52.353 15.053 52.275 15.482 52.275 15.95C52.275 16.418 52.353 16.847 52.509 17.237C52.6737 17.627 52.899 17.965 53.185 18.251C53.4797 18.537 53.822 18.758 54.212 18.914C54.6107 19.07 55.0483 19.148 55.525 19.148C56.0017 19.148 56.4437 19.0613 56.851 18.888C57.2583 18.706 57.6267 18.433 57.956 18.069L59.048 19.109C58.6233 19.603 58.1033 19.98 57.488 20.24C56.8727 20.5 56.188 20.63 55.434 20.63ZM64.7248 20.5V19.096L64.6338 18.797V16.34C64.6338 15.8633 64.4908 15.495 64.2048 15.235C63.9188 14.9663 63.4855 14.832 62.9048 14.832C62.5148 14.832 62.1292 14.8927 61.7478 15.014C61.3752 15.1353 61.0588 15.3043 60.7988 15.521L60.1618 14.338C60.5345 14.052 60.9765 13.8397 61.4878 13.701C62.0078 13.5537 62.5452 13.48 63.0998 13.48C64.1052 13.48 64.8808 13.7227 65.4268 14.208C65.9815 14.6847 66.2588 15.4257 66.2588 16.431V20.5H64.7248ZM62.5408 20.591C62.0208 20.591 61.5658 20.5043 61.1758 20.331C60.7858 20.149 60.4825 19.902 60.2658 19.59C60.0578 19.2693 59.9538 18.9097 59.9538 18.511C59.9538 18.121 60.0448 17.77 60.2268 17.458C60.4175 17.146 60.7252 16.899 61.1498 16.717C61.5745 16.535 62.1378 16.444 62.8398 16.444H64.8548V17.523H62.9568C62.4022 17.523 62.0295 17.614 61.8388 17.796C61.6482 17.9693 61.5528 18.186 61.5528 18.446C61.5528 18.7407 61.6698 18.9747 61.9038 19.148C62.1378 19.3213 62.4628 19.408 62.8788 19.408C63.2775 19.408 63.6328 19.317 63.9448 19.135C64.2655 18.953 64.4952 18.6843 64.6338 18.329L64.9068 19.304C64.7508 19.7113 64.4692 20.0277 64.0618 20.253C63.6632 20.4783 63.1562 20.591 62.5408 20.591ZM62.1508 12.609L63.9058 10.828H65.8168L63.5548 12.609H62.1508ZM71.542 20.591C70.814 20.591 70.164 20.4393 69.592 20.136C69.0287 19.824 68.5867 19.3993 68.266 18.862C67.9453 18.3247 67.785 17.7137 67.785 17.029C67.785 16.3357 67.9453 15.7247 68.266 15.196C68.5867 14.6587 69.0287 14.2383 69.592 13.935C70.164 13.6317 70.814 13.48 71.542 13.48C72.218 13.48 72.8117 13.6187 73.323 13.896C73.843 14.1647 74.2373 14.5633 74.506 15.092L73.258 15.82C73.05 15.4907 72.7943 15.248 72.491 15.092C72.1963 14.936 71.8757 14.858 71.529 14.858C71.1303 14.858 70.7707 14.9447 70.45 15.118C70.1293 15.2913 69.878 15.5427 69.696 15.872C69.514 16.1927 69.423 16.5783 69.423 17.029C69.423 17.4797 69.514 17.8697 69.696 18.199C69.878 18.5197 70.1293 18.7667 70.45 18.94C70.7707 19.1133 71.1303 19.2 71.529 19.2C71.8757 19.2 72.1963 19.122 72.491 18.966C72.7943 18.81 73.05 18.5673 73.258 18.238L74.506 18.966C74.2373 19.486 73.843 19.889 73.323 20.175C72.8117 20.4523 72.218 20.591 71.542 20.591ZM79.5035 20.5V10.854H81.1285V20.5H79.5035ZM86.3813 20.591C85.6706 20.591 85.038 20.4393 84.4833 20.136C83.9286 19.824 83.491 19.3993 83.1703 18.862C82.8496 18.3247 82.6893 17.7137 82.6893 17.029C82.6893 16.3357 82.8496 15.7247 83.1703 15.196C83.491 14.6587 83.9286 14.2383 84.4833 13.935C85.038 13.6317 85.6706 13.48 86.3813 13.48C87.1006 13.48 87.7376 13.6317 88.2923 13.935C88.8556 14.2383 89.2933 14.6543 89.6053 15.183C89.926 15.7117 90.0863 16.327 90.0863 17.029C90.0863 17.7137 89.926 18.3247 89.6053 18.862C89.2933 19.3993 88.8556 19.824 88.2923 20.136C87.7376 20.4393 87.1006 20.591 86.3813 20.591ZM86.3813 19.2C86.78 19.2 87.1353 19.1133 87.4473 18.94C87.7593 18.7667 88.002 18.5153 88.1753 18.186C88.3573 17.8567 88.4483 17.471 88.4483 17.029C88.4483 16.5783 88.3573 16.1927 88.1753 15.872C88.002 15.5427 87.7593 15.2913 87.4473 15.118C87.1353 14.9447 86.7843 14.858 86.3943 14.858C85.9956 14.858 85.6403 14.9447 85.3283 15.118C85.025 15.2913 84.7823 15.5427 84.6003 15.872C84.4183 16.1927 84.3273 16.5783 84.3273 17.029C84.3273 17.471 84.4183 17.8567 84.6003 18.186C84.7823 18.5153 85.025 18.7667 85.3283 18.94C85.6403 19.1133 85.9913 19.2 86.3813 19.2ZM95.8284 20.5V19.096L95.7374 18.797V16.34C95.7374 15.8633 95.5944 15.495 95.3084 15.235C95.0224 14.9663 94.589 14.832 94.0084 14.832C93.6184 14.832 93.2327 14.8927 92.8514 15.014C92.4787 15.1353 92.1624 15.3043 91.9024 15.521L91.2654 14.338C91.638 14.052 92.08 13.8397 92.5914 13.701C93.1114 13.5537 93.6487 13.48 94.2034 13.48C95.2087 13.48 95.9844 13.7227 96.5304 14.208C97.085 14.6847 97.3624 15.4257 97.3624 16.431V20.5H95.8284ZM93.6444 20.591C93.1244 20.591 92.6694 20.5043 92.2794 20.331C91.8894 20.149 91.586 19.902 91.3694 19.59C91.1614 19.2693 91.0574 18.9097 91.0574 18.511C91.0574 18.121 91.1484 17.77 91.3304 17.458C91.521 17.146 91.8287 16.899 92.2534 16.717C92.678 16.535 93.2414 16.444 93.9434 16.444H95.9584V17.523H94.0604C93.5057 17.523 93.133 17.614 92.9424 17.796C92.7517 17.9693 92.6564 18.186 92.6564 18.446C92.6564 18.7407 92.7734 18.9747 93.0074 19.148C93.2414 19.3213 93.5664 19.408 93.9824 19.408C94.381 19.408 94.7364 19.317 95.0484 19.135C95.369 18.953 95.5987 18.6843 95.7374 18.329L96.0104 19.304C95.8544 19.7113 95.5727 20.0277 95.1654 20.253C94.7667 20.4783 94.2597 20.591 93.6444 20.591ZM94.2684 23.139C94.0517 23.139 93.8654 23.0697 93.7094 22.931C93.562 22.7923 93.4884 22.606 93.4884 22.372C93.4884 22.138 93.562 21.9473 93.7094 21.8C93.8654 21.6527 94.0517 21.579 94.2684 21.579C94.485 21.579 94.667 21.6527 94.8144 21.8C94.9704 21.9473 95.0484 22.138 95.0484 22.372C95.0484 22.606 94.9704 22.7923 94.8144 22.931C94.667 23.0697 94.485 23.139 94.2684 23.139ZM99.4478 20.5V13.558H101.073V20.5H99.4478ZM100.267 12.414C99.9635 12.414 99.7122 12.3187 99.5128 12.128C99.3222 11.9373 99.2268 11.7077 99.2268 11.439C99.2268 11.1617 99.3222 10.932 99.5128 10.75C99.7122 10.5593 99.9635 10.464 100.267 10.464C100.57 10.464 100.817 10.555 101.008 10.737C101.207 10.9103 101.307 11.1313 101.307 11.4C101.307 11.686 101.212 11.9287 101.021 12.128C100.83 12.3187 100.579 12.414 100.267 12.414ZM109.983 20.591C109.255 20.591 108.605 20.4393 108.033 20.136C107.47 19.824 107.028 19.3993 106.707 18.862C106.387 18.3247 106.226 17.7137 106.226 17.029C106.226 16.3357 106.387 15.7247 106.707 15.196C107.028 14.6587 107.47 14.2383 108.033 13.935C108.605 13.6317 109.255 13.48 109.983 13.48C110.659 13.48 111.253 13.6187 111.764 13.896C112.284 14.1647 112.679 14.5633 112.947 15.092L111.699 15.82C111.491 15.4907 111.236 15.248 110.932 15.092C110.638 14.936 110.317 14.858 109.97 14.858C109.572 14.858 109.212 14.9447 108.891 15.118C108.571 15.2913 108.319 15.5427 108.137 15.872C107.955 16.1927 107.864 16.5783 107.864 17.029C107.864 17.4797 107.955 17.8697 108.137 18.199C108.319 18.5197 108.571 18.7667 108.891 18.94C109.212 19.1133 109.572 19.2 109.97 19.2C110.317 19.2 110.638 19.122 110.932 18.966C111.236 18.81 111.491 18.5673 111.699 18.238L112.947 18.966C112.679 19.486 112.284 19.889 111.764 20.175C111.253 20.4523 110.659 20.591 109.983 20.591ZM117.29 20.591C116.701 20.591 116.181 20.4827 115.73 20.266C115.279 20.0407 114.928 19.7027 114.677 19.252C114.426 18.7927 114.3 18.2163 114.3 17.523V13.558H115.925V17.302C115.925 17.926 116.064 18.394 116.341 18.706C116.627 19.0093 117.03 19.161 117.55 19.161C117.931 19.161 118.261 19.083 118.538 18.927C118.824 18.771 119.045 18.537 119.201 18.225C119.366 17.913 119.448 17.5273 119.448 17.068V13.558H121.073V20.5H119.526V18.628L119.799 19.2C119.565 19.6507 119.223 19.9973 118.772 20.24C118.321 20.474 117.827 20.591 117.29 20.591ZM120.02 14.715V13.558H120.293C120.562 13.558 120.761 13.48 120.891 13.324C121.03 13.168 121.099 12.9687 121.099 12.726C121.099 12.57 121.073 12.4227 121.021 12.284C120.978 12.1453 120.917 12.024 120.839 11.92L121.84 11.556C121.961 11.712 122.057 11.894 122.126 12.102C122.195 12.31 122.23 12.5353 122.23 12.778C122.23 13.376 122.057 13.8483 121.71 14.195C121.363 14.5417 120.887 14.715 120.28 14.715H120.02ZM126.232 20.591C125.521 20.591 124.889 20.4393 124.334 20.136C123.779 19.824 123.342 19.3993 123.021 18.862C122.7 18.3247 122.54 17.7137 122.54 17.029C122.54 16.3357 122.7 15.7247 123.021 15.196C123.342 14.6587 123.779 14.2383 124.334 13.935C124.897 13.6317 125.539 13.48 126.258 13.48C126.483 13.48 126.678 13.4887 126.843 13.506C127.008 13.5147 127.164 13.5277 127.311 13.545C127.467 13.5623 127.632 13.571 127.805 13.571C128.126 13.571 128.355 13.4887 128.494 13.324C128.641 13.1593 128.715 12.9557 128.715 12.713C128.715 12.557 128.689 12.414 128.637 12.284C128.585 12.1453 128.52 12.0197 128.442 11.907L129.43 11.543C129.543 11.7077 129.638 11.894 129.716 12.102C129.794 12.31 129.833 12.531 129.833 12.765C129.833 13.1377 129.746 13.4627 129.573 13.74C129.4 14.0173 129.153 14.2297 128.832 14.377C128.511 14.5243 128.126 14.598 127.675 14.598C127.51 14.598 127.346 14.5893 127.181 14.572C127.025 14.5547 126.86 14.533 126.687 14.507L127.701 13.74C128.377 14 128.919 14.4203 129.326 15.001C129.733 15.573 129.937 16.249 129.937 17.029C129.937 17.7137 129.777 18.3247 129.456 18.862C129.144 19.3993 128.706 19.824 128.143 20.136C127.588 20.4393 126.951 20.591 126.232 20.591ZM126.232 19.2C126.622 19.2 126.973 19.1133 127.285 18.94C127.597 18.7667 127.844 18.5153 128.026 18.186C128.208 17.8567 128.299 17.471 128.299 17.029C128.299 16.5783 128.208 16.1927 128.026 15.872C127.853 15.5427 127.61 15.2913 127.298 15.118C126.986 14.9447 126.631 14.858 126.232 14.858C125.842 14.858 125.491 14.9447 125.179 15.118C124.876 15.2913 124.633 15.5427 124.451 15.872C124.269 16.1927 124.178 16.5783 124.178 17.029C124.178 17.471 124.269 17.8567 124.451 18.186C124.633 18.5153 124.876 18.7667 125.179 18.94C125.491 19.1133 125.842 19.2 126.232 19.2ZM126.232 23.139C126.015 23.139 125.829 23.0697 125.673 22.931C125.526 22.7923 125.452 22.606 125.452 22.372C125.452 22.138 125.526 21.9473 125.673 21.8C125.829 21.6527 126.015 21.579 126.232 21.579C126.449 21.579 126.631 21.6527 126.778 21.8C126.934 21.9473 127.012 22.138 127.012 22.372C127.012 22.606 126.934 22.7923 126.778 22.931C126.631 23.0697 126.449 23.139 126.232 23.139ZM134.676 20.591C133.948 20.591 133.298 20.4393 132.726 20.136C132.162 19.824 131.72 19.3993 131.4 18.862C131.079 18.3247 130.919 17.7137 130.919 17.029C130.919 16.3357 131.079 15.7247 131.4 15.196C131.72 14.6587 132.162 14.2383 132.726 13.935C133.298 13.6317 133.948 13.48 134.676 13.48C135.352 13.48 135.945 13.6187 136.457 13.896C136.977 14.1647 137.371 14.5633 137.64 15.092L136.392 15.82C136.184 15.4907 135.928 15.248 135.625 15.092C135.33 14.936 135.009 14.858 134.663 14.858C134.264 14.858 133.904 14.9447 133.584 15.118C133.263 15.2913 133.012 15.5427 132.83 15.872C132.648 16.1927 132.557 16.5783 132.557 17.029C132.557 17.4797 132.648 17.8697 132.83 18.199C133.012 18.5197 133.263 18.7667 133.584 18.94C133.904 19.1133 134.264 19.2 134.663 19.2C135.009 19.2 135.33 19.122 135.625 18.966C135.928 18.81 136.184 18.5673 136.392 18.238L137.64 18.966C137.371 19.486 136.977 19.889 136.457 20.175C135.945 20.4523 135.352 20.591 134.676 20.591ZM143.963 18.953L144.002 16.912L147.629 13.558H149.579L146.498 16.652L145.64 17.367L143.963 18.953ZM142.637 20.5V10.854H144.262V20.5H142.637ZM147.876 20.5L145.341 17.367L146.368 16.067L149.852 20.5H147.876ZM154.841 13.48C155.396 13.48 155.89 13.5883 156.323 13.805C156.765 14.0217 157.112 14.3553 157.363 14.806C157.614 15.248 157.74 15.82 157.74 16.522V20.5H156.115V16.73C156.115 16.1147 155.968 15.6553 155.673 15.352C155.387 15.0487 154.984 14.897 154.464 14.897C154.083 14.897 153.745 14.975 153.45 15.131C153.155 15.287 152.926 15.521 152.761 15.833C152.605 16.1363 152.527 16.522 152.527 16.99V20.5H150.902V10.854H152.527V15.43L152.176 14.858C152.419 14.416 152.77 14.078 153.229 13.844C153.697 13.6013 154.234 13.48 154.841 13.48ZM164.078 20.5V19.096L163.987 18.797V16.34C163.987 15.8633 163.844 15.495 163.558 15.235C163.272 14.9663 162.839 14.832 162.258 14.832C161.868 14.832 161.483 14.8927 161.101 15.014C160.729 15.1353 160.412 15.3043 160.152 15.521L159.515 14.338C159.888 14.052 160.33 13.8397 160.841 13.701C161.361 13.5537 161.899 13.48 162.453 13.48C163.459 13.48 164.234 13.7227 164.78 14.208C165.335 14.6847 165.612 15.4257 165.612 16.431V20.5H164.078ZM161.894 20.591C161.374 20.591 160.919 20.5043 160.529 20.331C160.139 20.149 159.836 19.902 159.619 19.59C159.411 19.2693 159.307 18.9097 159.307 18.511C159.307 18.121 159.398 17.77 159.58 17.458C159.771 17.146 160.079 16.899 160.503 16.717C160.928 16.535 161.491 16.444 162.193 16.444H164.208V17.523H162.31C161.756 17.523 161.383 17.614 161.192 17.796C161.002 17.9693 160.906 18.186 160.906 18.446C160.906 18.7407 161.023 18.9747 161.257 19.148C161.491 19.3213 161.816 19.408 162.232 19.408C162.631 19.408 162.986 19.317 163.298 19.135C163.619 18.953 163.849 18.6843 163.987 18.329L164.26 19.304C164.104 19.7113 163.823 20.0277 163.415 20.253C163.017 20.4783 162.51 20.591 161.894 20.591ZM161.504 12.609L163.259 10.828H165.17L162.908 12.609H161.504ZM170.896 20.591C170.168 20.591 169.518 20.4393 168.946 20.136C168.382 19.824 167.94 19.3993 167.62 18.862C167.299 18.3247 167.139 17.7137 167.139 17.029C167.139 16.3357 167.299 15.7247 167.62 15.196C167.94 14.6587 168.382 14.2383 168.946 13.935C169.518 13.6317 170.168 13.48 170.896 13.48C171.572 13.48 172.165 13.6187 172.677 13.896C173.197 14.1647 173.591 14.5633 173.86 15.092L172.612 15.82C172.404 15.4907 172.148 15.248 171.845 15.092C171.55 14.936 171.229 14.858 170.883 14.858C170.484 14.858 170.124 14.9447 169.804 15.118C169.483 15.2913 169.232 15.5427 169.05 15.872C168.868 16.1927 168.777 16.5783 168.777 17.029C168.777 17.4797 168.868 17.8697 169.05 18.199C169.232 18.5197 169.483 18.7667 169.804 18.94C170.124 19.1133 170.484 19.2 170.883 19.2C171.229 19.2 171.55 19.122 171.845 18.966C172.148 18.81 172.404 18.5673 172.612 18.238L173.86 18.966C173.591 19.486 173.197 19.889 172.677 20.175C172.165 20.4523 171.572 20.591 170.896 20.591Z" fill="white"/>
</svg>
