<svg width="14" height="15" viewBox="0 0 14 15" fill="none" xmlns="http://www.w3.org/2000/svg">
<path d="M14 6.37234C14 2.85294 10.8659 0 7 0C3.1341 0 0 2.85294 0 6.37234C0 9.45036 2.39733 12.0188 5.5851 12.6144C5.9169 12.6927 6.53543 12.7786 6.5148 13.2672C6.51041 13.4289 6.49857 13.8317 6.41337 14.251C6.32818 14.6702 6.30468 15.1522 6.8042 14.9541C7.30372 14.7561 10.2044 13.1571 12.3908 10.4376C12.3908 10.4376 12.3908 10.4374 12.391 10.4372C13.3958 9.33406 13.9998 7.91746 13.9998 6.37255L14 6.37234Z" fill="#0C7CFF"/>
</svg>
